<svg xmlns="http://www.w3.org/2000/svg" width="20" height="19" viewBox="0 0 20 19">
  <defs>
    <style>
      .cls-1 {
        fill: #fff;
        fill-rule: evenodd;
      }
    </style>
  </defs>
  <path id="shopping_cart_plus_round" class="cls-1" d="M755,1464.9h-2l-3.528-6.33a1.031,1.031,0,0,0-1.368-.46,1.177,1.177,0,0,0-.367,1.51l2.95,5.28H741.29l2.95-5.32a1.124,1.124,0,0,0-.367-1.47,1.049,1.049,0,0,0-1.368.5l-3.528,6.29h-2c-1.213,0-1.577,2.02.334,2.02l1.389,8.4a2.005,2.005,0,0,0,1.976,1.68H751.3a2.005,2.005,0,0,0,1.976-1.68l1.39-8.4C756.6,1466.92,756.194,1464.9,755,1464.9Zm-3.545,9.27a1.009,1.009,0,0,1-.984.82h-8.948a1.008,1.008,0,0,1-.988-0.85l-1.195-7.22h13.476Zm-8.471-3.22a1.01,1.01,0,0,1,1-1.01h1v-1.37a1,1,0,1,1,2,0v1.37h1a1.01,1.01,0,0,1,0,2.02h-1v0.65a1,1,0,0,1-2,0v-0.65h-1A1,1,0,0,1,742.983,1470.95Z" transform="translate(-736 -1458)"/>
</svg>
